<?xml version="1.0" encoding="UTF-8" standalone="no"?>
<svg xmlns="http://www.w3.org/2000/svg"
   version="1.1"
   height="100%"
   width="100%"
   viewBox="0 0 128 128">
  <g transform="translate(0 -924)">
    <path
       transform="translate(0,924)"
       fill="#fff"
       d="M 31.800781 43 C 31.237781 43 30.749609 43.202422 30.349609 43.607422 C 29.956609 44.000422 29.761719 44.485594 29.761719 45.058594 L 29.761719 72.357422 C 29.761719 72.933422 29.957609 73.428125 30.349609 73.828125 C 30.755609 74.221125 31.240781 74.417969 31.800781 74.417969 C 32.376781 74.417969 32.86 74.220125 33.25 73.828125 C 33.656 73.422125 33.857422 72.930422 33.857422 72.357422 L 33.857422 62.71875 C 33.857422 61.88075 34.014125 61.087891 34.328125 60.337891 C 34.655125 59.591891 35.101922 58.938906 35.669922 58.378906 C 36.232922 57.815906 36.879375 57.378594 37.609375 57.058594 C 38.355375 56.731594 39.149766 56.566406 40.009766 56.566406 C 40.847766 56.566406 41.638672 56.731594 42.388672 57.058594 C 43.134672 57.385594 43.778125 57.830438 44.328125 58.398438 C 44.891125 58.948436 45.339922 59.597891 45.669922 60.337891 C 45.996922 61.083891 46.160156 61.87875 46.160156 62.71875 L 46.160156 72.357422 C 46.160156 72.933422 46.356047 73.428125 46.748047 73.828125 C 47.154047 74.221125 47.639219 74.417969 48.199219 74.417969 C 48.762219 74.417969 49.238906 74.220125 49.628906 73.828125 C 50.034906 73.422125 50.244812 72.930422 50.257812 72.357422 L 50.257812 62.71875 C 50.257812 61.30875 49.983594 59.978516 49.433594 58.728516 C 48.883594 57.468516 48.133359 56.38875 47.193359 55.46875 C 46.251359 54.53975 45.152109 53.807578 43.912109 53.267578 C 42.682109 52.730578 41.383906 52.462891 40.003906 52.462891 C 37.643906 52.462891 35.603516 53.136422 33.853516 54.482422 L 33.853516 45.0625 C 33.840416 44.4865 33.630609 44.003281 33.224609 43.613281 C 32.831609 43.207281 32.354922 43.005859 31.794922 43.005859 L 31.800781 43 z M 80.599609 43 C 80.010609 43 79.520859 43.195891 79.130859 43.587891 C 78.750859 43.967891 78.560547 44.451109 78.560547 45.037109 L 78.560547 63.4375 C 78.560547 64.8775 78.805063 66.217031 79.289062 67.457031 L 80.251953 63.748047 L 82.800781 64.847656 C 82.707681 64.391656 82.660156 63.9225 82.660156 63.4375 C 82.660156 62.4955 82.836453 61.607578 83.189453 60.767578 C 83.555453 59.929578 84.047156 59.207891 84.660156 58.587891 C 85.275156 57.959891 85.999844 57.457656 86.839844 57.097656 C 87.677844 56.731656 88.580781 56.548828 89.550781 56.548828 C 90.505781 56.548828 91.400234 56.731656 92.240234 57.097656 C 92.861234 57.369656 93.419922 57.714906 93.919922 58.128906 L 91.169922 59.6875 L 95.039062 61.078125 L 98.910156 62.46875 L 99.693359 58.4375 L 100.47852 54.408203 L 97.658203 56.007812 C 97.551203 55.892812 97.448937 55.776064 97.335938 55.664062 C 95.165937 53.514063 92.574453 52.443359 89.564453 52.443359 C 86.924453 52.443359 84.625781 53.254047 82.675781 54.873047 L 82.675781 45.054688 C 82.675781 44.465687 82.471406 43.983516 82.066406 43.603516 C 81.673406 43.210516 81.189188 43.015625 80.617188 43.015625 L 80.599609 43 z M 15.681641 52.40625 L 15.699219 52.419922 C 12.659219 52.419922 10.069688 53.490625 7.9296875 55.640625 C 6.1796875 57.390625 5.1500781 59.429531 4.8300781 61.769531 L 1.6796875 61.769531 L 1.7011719 61.794922 L 1.6464844 61.794922 L 4.328125 64.935547 L 7.0078125 68.076172 L 9.6875 64.935547 L 12.367188 61.794922 L 12.337891 61.794922 L 12.359375 61.769531 L 9 61.769531 C 9.082 61.420531 9.1861719 61.08 9.3261719 60.75 C 9.6921719 59.912 10.183875 59.190313 10.796875 58.570312 C 11.411875 57.942312 12.136563 57.440078 12.976562 57.080078 C 13.814563 56.714078 14.7175 56.53125 15.6875 56.53125 C 16.6425 56.53125 17.536953 56.714078 18.376953 57.080078 C 19.214953 57.446078 19.936641 57.944313 20.556641 58.570312 C 21.184641 59.198313 21.677344 59.929531 22.027344 60.769531 C 22.393344 61.594531 22.576172 62.479922 22.576172 63.419922 C 22.576172 64.361922 22.393344 65.249844 22.027344 66.089844 C 21.674344 66.914844 21.182641 67.639531 20.556641 68.269531 C 19.941641 68.897531 19.216953 69.399766 18.376953 69.759766 C 17.538953 70.125766 16.6475 70.310547 15.6875 70.310547 C 14.7185 70.310547 13.816563 70.126766 12.976562 69.759766 C 12.138564 69.393766 11.416875 68.901063 10.796875 68.289062 C 10.254788 67.735518 9.8121458 67.096795 9.4667969 66.378906 L 7.0078125 69.259766 L 4.6875 66.541016 L 4.6875 81.771484 C 4.6875 82.360484 4.8788125 82.842656 5.2578125 83.222656 C 5.6508125 83.615656 6.1405625 83.810547 6.7265625 83.810547 C 7.3025625 83.810547 7.7877344 83.614656 8.1777344 83.222656 C 8.5837344 82.842656 8.7871094 82.357484 8.7871094 81.771484 L 8.7871094 71.972656 C 10.747109 73.582656 13.045781 74.382812 15.675781 74.382812 C 17.185781 74.382812 18.575469 74.119703 19.855469 73.595703 C 21.155469 73.058703 22.347266 72.246016 23.447266 71.166016 C 25.597266 69.046016 26.666016 66.456484 26.666016 63.396484 C 26.666016 61.876484 26.398328 60.465781 25.861328 59.175781 C 25.324328 57.865781 24.521172 56.686953 23.451172 55.626953 C 21.281172 53.476953 18.691641 52.40625 15.681641 52.40625 z M 64.5 52.419922 C 61.46 52.419922 58.870469 53.490625 56.730469 55.640625 C 54.580469 57.790625 53.509766 60.380156 53.509766 63.410156 L 53.509766 81.810547 C 53.509766 82.399547 53.699125 82.879766 54.078125 83.259766 C 54.471125 83.652766 54.962828 83.847656 55.548828 83.847656 C 56.124828 83.847656 56.608047 83.651766 56.998047 83.259766 C 57.404047 82.879766 57.607422 82.396547 57.607422 81.810547 L 57.607422 72.009766 C 59.567422 73.619766 61.866094 74.419922 64.496094 74.419922 C 66.006094 74.419922 67.397734 74.158766 68.677734 73.634766 C 69.977734 73.097766 71.167578 72.283125 72.267578 71.203125 C 74.417578 69.083125 75.486328 66.493594 75.486328 63.433594 C 75.486328 61.913594 75.218641 60.504844 74.681641 59.214844 C 74.144641 57.904844 73.341484 56.724063 72.271484 55.664062 C 70.101484 53.514063 67.511953 52.443359 64.501953 52.443359 L 64.5 52.419922 z M 105.80078 52.419922 C 105.22478 52.419922 104.73008 52.621344 104.33008 53.027344 C 103.93708 53.420344 103.74219 53.897031 103.74219 54.457031 L 103.74219 64.158203 C 103.74219 65.558203 104.00988 66.878906 104.54688 68.128906 C 105.09686 69.368906 105.83758 70.458672 106.76758 71.388672 C 107.69658 72.317672 108.78734 73.057422 110.02734 73.607422 C 111.26734 74.144422 112.58609 74.414063 113.99609 74.414062 C 115.17609 74.414062 116.26734 74.256406 117.27734 73.941406 C 118.28734 73.614406 119.23648 73.098578 120.14648 72.392578 C 120.15958 72.955578 120.35537 73.432266 120.73438 73.822266 C 121.11436 74.215266 121.59955 74.410156 122.18555 74.410156 C 122.76155 74.410156 123.24477 74.214266 123.63477 73.822266 C 124.04077 73.416266 124.24219 72.931094 124.24219 72.371094 L 124.24219 54.472656 C 124.24219 53.909656 124.03977 53.432969 123.63477 53.042969 C 123.24177 52.636969 122.76408 52.433594 122.20508 52.433594 C 121.62908 52.433594 121.13437 52.636969 120.73438 53.042969 C 120.34136 53.435969 120.14648 53.912656 120.14648 54.472656 L 120.14648 64.171875 C 120.14648 65.022875 119.98325 65.822266 119.65625 66.572266 C 119.34225 67.305266 118.90394 67.951719 118.33594 68.511719 C 117.77294 69.074719 117.11695 69.521563 116.37695 69.851562 C 115.63095 70.165562 114.83609 70.322266 113.99609 70.322266 C 113.14509 70.322266 112.3457 70.165562 111.5957 69.851562 C 110.8497 69.524563 110.19672 69.08525 109.63672 68.53125 C 109.08672 67.96825 108.64841 67.312266 108.31641 66.572266 C 108.00241 65.826266 107.84375 65.031875 107.84375 64.171875 L 107.84375 54.472656 C 107.84375 53.909656 107.64133 53.432969 107.23633 53.042969 C 106.84333 52.636969 106.36564 52.433594 105.80664 52.433594 L 105.80078 52.419922 z M 64.5 56.519531 C 65.455 56.519531 66.349453 56.702359 67.189453 57.068359 C 68.027453 57.434359 68.749141 57.932594 69.369141 58.558594 C 69.997141 59.186594 70.489844 59.919766 70.839844 60.759766 C 71.205844 61.584766 71.390625 62.468203 71.390625 63.408203 C 71.390625 64.350203 71.205844 65.238125 70.839844 66.078125 C 70.486844 66.903125 69.995141 67.629766 69.369141 68.259766 C 68.754141 68.887766 68.029453 69.388047 67.189453 69.748047 C 66.351453 70.114047 65.46 70.298828 64.5 70.298828 C 63.531 70.298828 62.629064 70.115047 61.789062 69.748047 C 60.951062 69.382047 60.229375 68.891297 59.609375 68.279297 C 58.994375 67.651297 58.500625 66.918125 58.140625 66.078125 C 57.787625 65.240125 57.609375 64.348203 57.609375 63.408203 C 57.609375 62.466203 57.787625 61.578281 58.140625 60.738281 C 58.506625 59.900281 58.996375 59.178594 59.609375 58.558594 C 60.224375 57.930594 60.949063 57.428359 61.789062 57.068359 C 62.627063 56.702359 63.53 56.519531 64.5 56.519531 z M 15.195312 57.080078 L 15.199219 57.082031 L 15.199219 63.632812 L 15.179688 63.662109 L 20.609375 67.361328 L 21.169922 66.539062 L 16.189453 63.150391 L 16.189453 57.080078 L 15.195312 57.080078 z M 100.19922 60.183594 L 100.19141 60.195312 C 100.19258 60.199219 100.19415 60.203124 100.19531 60.207031 L 100.19922 60.183594 z M 100.19531 60.207031 L 99.568359 63.423828 L 96.449219 62.302734 C 96.508819 62.663734 96.546875 63.031109 96.546875 63.412109 C 96.546875 64.354109 96.364047 65.242031 95.998047 66.082031 C 95.645047 66.907031 95.153344 67.633672 94.527344 68.263672 C 93.912344 68.891672 93.187656 69.393906 92.347656 69.753906 C 91.509656 70.119906 90.618203 70.302734 89.658203 70.302734 C 88.689203 70.302734 87.787266 70.120906 86.947266 69.753906 C 86.580266 69.593906 86.238969 69.404314 85.917969 69.195312 L 88.398438 67.976562 L 84.626953 66.355469 L 80.857422 64.736328 L 79.828125 68.716797 L 78.796875 72.695312 L 81.876953 71.185547 C 81.880053 71.185547 81.883819 71.195313 81.886719 71.195312 C 84.036719 73.345313 86.62625 74.416016 89.65625 74.416016 C 92.66625 74.416016 95.255781 73.345312 97.425781 71.195312 C 99.575781 69.075312 100.64648 66.485781 100.64648 63.425781 C 100.64648 62.290189 100.49598 61.213665 100.19531 60.207031 z " />
  </g>
</svg>
